<svg width="192" height="192" viewBox="0 0 192 192" fill="none" xmlns="http://www.w3.org/2000/svg">
  <!-- 背景グラデーション -->
  <defs>
    <linearGradient id="bgGradient" x1="0%" y1="0%" x2="100%" y2="100%">
      <stop offset="0%" style="stop-color:#667eea;stop-opacity:1" />
      <stop offset="100%" style="stop-color:#764ba2;stop-opacity:1" />
    </linearGradient>
    <linearGradient id="checkGradient" x1="0%" y1="0%" x2="100%" y2="100%">
      <stop offset="0%" style="stop-color:#4CAF50;stop-opacity:1" />
      <stop offset="100%" style="stop-color:#2E7D32;stop-opacity:1" />
    </linearGradient>
  </defs>
  
  <!-- メイン背景 -->
  <rect width="192" height="192" rx="32" fill="url(#bgGradient)"/>
  
  <!-- シャドウ効果 -->
  <rect width="192" height="192" rx="32" fill="url(#bgGradient)" opacity="0.8"/>
  
  <!-- メインのノート/リスト背景 -->
  <rect x="32" y="40" width="128" height="112" rx="12" fill="white" opacity="0.95"/>
  
  <!-- ノートの螺旋部分 -->
  <circle cx="140" cy="52" r="8" fill="none" stroke="#E0E0E0" stroke-width="2"/>
  <path d="M 140 44 A 8 8 0 0 1 132 52 A 8 8 0 0 1 140 60 A 8 8 0 0 1 148 52 A 8 8 0 0 1 140 44" fill="none" stroke="#E0E0E0" stroke-width="1.5"/>
  
  <!-- タスクリストの線 -->
  <line x1="48" y1="72" x2="120" y2="72" stroke="#667eea" stroke-width="3" stroke-linecap="round"/>
  <line x1="48" y1="92" x2="120" y2="92" stroke="#667eea" stroke-width="3" stroke-linecap="round"/>
  <line x1="48" y1="112" x2="120" y2="112" stroke="#667eea" stroke-width="3" stroke-linecap="round"/>
  
  <!-- チェックボックス -->
  <rect x="48" y="66" width="12" height="12" rx="2" fill="white" stroke="#4CAF50" stroke-width="2"/>
  <rect x="48" y="86" width="12" height="12" rx="2" fill="white" stroke="#4CAF50" stroke-width="2"/>
  <rect x="48" y="106" width="12" height="12" rx="2" fill="url(#checkGradient)" stroke="#4CAF50" stroke-width="2"/>
  
  <!-- チェックマーク -->
  <path d="M 52 110 L 56 114 L 60 110" stroke="white" stroke-width="2" stroke-linecap="round" stroke-linejoin="round"/>
  
  <!-- 装飾的な星 -->
  <path d="M 144 120 L 146 126 L 152 126 L 147 130 L 149 136 L 144 132 L 139 136 L 141 130 L 136 126 L 142 126 Z" fill="#FFD700" opacity="0.8"/>
  
  <!-- 小さな装飾ドット -->
  <circle cx="160" cy="32" r="3" fill="#FFD700" opacity="0.6"/>
  <circle cx="24" cy="160" r="2" fill="#FFD700" opacity="0.5"/>
  <circle cx="168" cy="160" r="2" fill="#FFD700" opacity="0.5"/>
</svg>